<svg xmlns="http://www.w3.org/2000/svg" xmlns:xlink="http://www.w3.org/1999/xlink" id="Layer_1" x="0px" y="0px" viewBox="0 0 704.9 376" style="enable-background:new 0 0 704.9 376;" xml:space="preserve"><style type="text/css">	.st0{fill:#FFFFFF;}	.st1{fill:#154D95;}	.st2{fill:#78C2EB;}	.st3{fill:#895C9F;}	.st4{fill:#D074A1;}	.st5{fill:#EA6842;}	.st6{fill:#FFC73F;}	.st7{clip-path:url(#SVGID_00000174588207826049575270000016518983180885474228_);}	.st8{fill:#CF74A0;}	.st9{fill:none;stroke:#895C9F;stroke-miterlimit:10;}	.st10{fill:#134E94;}	.st11{fill:#78C1EB;}	.st12{fill:#E96743;}	.st13{fill:#201D1E;}	.st14{fill:#164B96;}	.st15{fill:#77C4ED;}	.st16{fill:#D274A3;}	.st17{fill:#EC6942;}	.st18{fill:#FFC83F;}	.st19{enable-background:new    ;}</style><g>	<g>		<g>			<g>				<path class="st14" d="M248.4,369.4c-1.2-0.7-2.3-1.4-3.3-2.3c-1.1-1-2.1-2.1-3.2-3.1c-18.5-18.8-30.9-43.3-35-69.6     c-4.5-28.5,1.1-58,15.5-83c14.4-25,37.2-44.5,64.1-54.9c24.9-9.6,52.6-11.1,78.3-4.3c1.1,0.3,2.2,0.6,3.3,0.9     c1.4,0.5,2.8,1.1,4.1,1.9c11.8,6.8,15.9,22,9.1,33.8c-5.6,9.7-16.8,14.2-27.2,11.7c-0.6-0.2-1.3-0.4-1.9-0.5     c-33.8-9.1-69.3,5.5-87,36.2c-17.9,30.9-12.5,69.4,12.9,94.1c0,0,0.1,0.1,0.1,0.1c7.8,7.7,9.7,20,4,30     C275.4,372.2,260.2,376.2,248.4,369.4z"></path>			</g>			<circle class="st15" cx="329.8" cy="273.4" r="37.9"></circle>		</g>		<g>			<g>				<path class="st3" d="M17.4,156c1.2-0.7,2.4-1.3,3.6-1.7c1.4-0.4,2.9-0.8,4.3-1.2c25.6-6.7,53-5.1,77.8,4.5     c26.9,10.4,49.7,29.9,64.1,54.9c14.4,25,20,54.5,15.5,83c-4.1,26.4-16.6,51.1-35.4,69.9c-0.8,0.8-1.6,1.6-2.5,2.4     c-1.1,1-2.4,1.8-3.7,2.6c-11.8,6.8-27,2.8-33.8-9.1c-5.6-9.7-3.9-21.7,3.5-29.4c0.5-0.4,0.9-0.9,1.4-1.4     c24.8-24.8,29.9-62.8,12.2-93.4c-17.9-30.9-53.8-45.5-88-35.9c0,0-0.1,0-0.1,0c-10.6,2.9-22.2-1.6-28-11.5     C1.5,178,5.6,162.8,17.4,156z"></path>			</g>			<circle class="st16" cx="59.9" cy="274.5" r="37.9"></circle>		</g>		<g>			<g>				<path class="st17" d="M317.7,62.7c0,1.4-0.1,2.7-0.3,4c-0.3,1.4-0.7,2.9-1.1,4.3c-7,25.5-22.1,48.5-42.8,65.1     c-22.5,18.1-50.7,28.1-79.6,28.1c-28.9,0-57.2-10-79.6-28.1c-20.8-16.8-35.9-39.9-42.9-65.6c-0.3-1.1-0.6-2.2-0.9-3.3     c-0.3-1.5-0.4-3-0.4-4.5c0-13.7,11.1-24.8,24.8-24.8c11.2,0,20.7,7.5,23.7,17.7c0.2,0.6,0.3,1.3,0.5,1.9     c9.1,33.8,39.4,57.2,74.8,57.2c35.7,0,66.3-23.9,75.1-58.2c0,0,0-0.1,0-0.1c2.8-10.6,12.5-18.4,24-18.4     C306.6,37.9,317.7,49,317.7,62.7z"></path>			</g>			<circle class="st18" cx="193.9" cy="40.2" r="37.9"></circle>		</g>	</g>	<g>		<g>			<g>				<path d="M465.7,68.4c-17,0-29.9,12.3-29.9,31.4c0,17.7,12.9,31.4,31.7,31.4c9.6,0,16.7-3.9,20.2-6.4c2-1.2,2.4-3.2,1.2-5.2     l-1.1-1.8c-1.3-2.2-3.1-2.5-5.3-1.3c-2.7,2-7.8,4.7-14.3,4.7c-10.6,0-20-7.2-20.7-20.2h40c2.4,0,4-1.9,4-4     C491.5,80.3,482.2,68.4,465.7,68.4z M447.9,93.4c1.7-10.1,8.8-16,17.5-16c7.9,0,14.2,5.4,14.6,16H447.9z"></path>				<path d="M529,68.4c-9.1,0-15.9,3.1-19.4,5.1c-2.1,1.2-2.5,3.1-1.3,5.3l0.9,1.7c1.3,2.1,3.1,2.5,5.3,1.4     c2.7-1.5,7.6-3.8,13.5-3.8c7.3,0,13,3.3,13,13.1v1.5H538c-12.4,0-35.7,2-35.7,20.6c0,11.2,9.6,17.7,20.1,17.7     c14,0,19.5-12.5,19.5-12.5h0.2c0,0-0.4,1.4-0.4,3.7v3.6c0,2.6,1.4,3.9,3.9,3.9h3c2.5,0,3.9-1.3,3.9-3.9v-34     C552.5,76.7,543.9,68.4,529,68.4z M541.2,103c0,8.9-6.2,19-16.2,19c-7.3,0-11.1-4.9-11.1-9.6c0-11.4,15.9-12.1,24.3-12.1h3.1     V103z"></path>				<path d="M600.7,69.4c-9,0-15.7,7.8-18.3,15.7h-0.2c0,0,0.4-2,0.4-4.5v-6.9c0-2.6-1.3-3.9-3.9-3.9h-3.3c-2.5,0-3.9,1.3-3.9,3.9     v52.1c0,2.6,1.4,3.9,3.9,3.9h3.7c2.6,0,3.9-1.3,3.9-3.9V105c0-11.8,5.7-24.5,17.4-24.5c2.7,0,4.3-1.3,4.3-3.9v-3.3     C604.5,70.7,603.4,69.4,600.7,69.4z"></path>				<path d="M633.5,119.9c-2.5-0.2-5.4-1.2-5.4-7.9V50.1c0-2.6-1.4-3.9-3.9-3.9h-3.7c-2.6,0-3.9,1.3-3.9,3.9v63.3     c0,15,9.6,16.8,16,16.8c3,0,4-1.5,4-4v-2.8C636.5,121.1,635.2,120.1,633.5,119.9z"></path>				<path d="M696.3,69.9H692c-2.4,0-3.7,0.9-4.4,3.2L674,109.1c-1.1,3.1-2,7.1-2,7.1h-0.2c0,0-1.1-4.3-2.1-7.2l-14.1-36.1     c-0.7-2.1-2.1-3.1-4.4-3.1h-4.6c-2.8,0-4.1,1.8-3,4.5l23.2,54.7l-3,6.9c-1.9,4.7-5.4,9-10.3,9c-2,0-3.5-0.8-4.7-1.3     c-1.7-0.5-3.4-0.1-4.4,2l-0.9,2c-0.9,2-0.5,4.1,1.8,5.1c2,0.8,4.9,1.9,8.3,1.9c8.4,0,15.9-5,19.4-14.3l26.4-65.9     C700.4,71.6,699.1,69.9,696.3,69.9z"></path>			</g>			<g>				<path d="M485,167.1h-3.9c-2.2,0-3.4,0.9-4.1,3l-12.6,33.4c-1,2.8-1.9,6.6-1.9,6.6h-0.2c0,0-1-3.9-2-6.7l-13-33.4     c-0.7-2-2-2.8-4.1-2.8H439c-2.6,0-3.8,1.6-2.7,4.2l21.5,50.6l-2.7,6.4c-1.8,4.4-5,8.3-9.5,8.3c-1.9,0-3.3-0.8-4.4-1.2     c-1.5-0.4-3.2-0.1-4.1,1.9l-0.9,1.9c-0.9,1.9-0.4,3.8,1.6,4.7c1.9,0.8,4.5,1.8,7.7,1.8c7.8,0,14.7-4.6,18-13.3l24.4-61     C488.9,168.7,487.7,167.1,485,167.1z"></path>				<path d="M524.1,165.7c-15.8,0-27.7,11.4-27.7,29c0,16.4,11.9,29,29.4,29c8.9,0,15.4-3.6,18.7-5.9c1.9-1.1,2.2-3,1.1-4.8l-1-1.6     c-1.2-2.1-2.8-2.3-4.9-1.2c-2.5,1.9-7.2,4.4-13.3,4.4c-9.9,0-18.5-6.7-19.2-18.7h37c2.2,0,3.7-1.8,3.7-3.7     C548,176.7,539.5,165.7,524.1,165.7z M507.7,188.9c1.5-9.3,8.1-14.8,16.2-14.8c7.3,0,13.1,5,13.5,14.8H507.7z"></path>				<path d="M582.8,165.7c-8.4,0-14.7,2.8-18,4.7c-2,1.1-2.3,2.8-1.2,4.9l0.9,1.5c1.2,2,2.8,2.3,4.9,1.3c2.5-1.4,7-3.5,12.5-3.5     c6.8,0,12.1,3.1,12.1,12.2v1.4h-2.8c-11.5,0-33.1,1.9-33.1,19.1c0,10.4,8.9,16.4,18.6,16.4c12.9,0,18.1-11.6,18.1-11.6h0.2     c0,0-0.3,1.3-0.3,3.4v3.3c0,2.4,1.3,3.6,3.6,3.6h2.7c2.3,0,3.6-1.2,3.6-3.6v-31.4C604.6,173.4,596.6,165.7,582.8,165.7z      M594,197.7c0,8.2-5.7,17.6-15,17.6c-6.8,0-10.3-4.5-10.3-8.9c0-10.5,14.7-11.2,22.5-11.2h2.8V197.7z"></path>				<path d="M649.1,166.6c-8.3,0-14.6,7.2-17,14.6h-0.2c0,0,0.3-1.9,0.3-4.2v-6.4c0-2.4-1.2-3.6-3.6-3.6h-3.1     c-2.3,0-3.6,1.2-3.6,3.6v48.2c0,2.4,1.3,3.6,3.6,3.6h3.4c2.4,0,3.6-1.2,3.6-3.6v-19.3c0-11,5.3-22.7,16.1-22.7     c2.5,0,3.9-1.2,3.9-3.6v-3.1C652.7,167.8,651.7,166.6,649.1,166.6z"></path>				<path d="M671.3,181.5c0-4.7,4.1-7,9.3-7c5.3,0,9,1.9,11.3,3.2c2.1,1,3.7,0.8,4.8-1.2l1-1.6c1.1-2,0.8-3.8-1.2-4.8     c-2.6-1.6-7.7-4.3-15.3-4.3c-10.8,0-20,5.5-20,16c0,18.7,28.6,15.1,28.6,26c0,4.7-3.9,7.3-9.4,7.3c-6.5,0-11.1-2.8-13.6-4.5     c-2.2-1.2-3.6-1.1-5,0.8l-1.1,1.5c-1.2,1.9-1.1,3.7,0.8,4.9c3.1,2.3,9.4,6,18.6,6c11.9,0,19.9-6.9,19.9-16.3     C699.9,188.6,671.3,192.6,671.3,181.5z"></path>			</g>			<g>				<path d="M479.8,298.4c-1.2-1.9-2.6-2-4.4-0.9c-2.3,1.8-6.6,4.5-12.6,4.5c-10.2,0-17.4-7.7-17.4-17.8c0-10.2,7.2-17.6,17.2-17.6     c5.2,0,9,2.2,11,3.7c1.9,1.1,3.2,1,4.4-0.8l1-1.5c1.2-1.7,1.1-3.3-0.6-4.4c-2.6-2-8-5.3-16.3-5.3c-15.4,0-26.4,11.2-26.4,25.9     c0,14.8,10.8,25.9,26.4,25.9c8.9,0,14.8-3.8,17.6-6.1c1.6-1.1,1.9-2.6,0.9-4.3L479.8,298.4z"></path>				<path d="M516.1,258.5c-14.7,0-26.5,10.8-26.5,25.8c0,15,11.8,26,26.5,26c14.7,0,26.6-10.9,26.6-26     C542.7,269.3,530.8,258.5,516.1,258.5z M516.1,302c-9.3,0-17-7.4-17-17.8c0-10.2,7.7-17.6,17-17.6c9.4,0,17,7.3,17,17.6     C533.1,294.6,525.4,302,516.1,302z"></path>				<path d="M596.1,259.7h-3c-2.1,0-3.2,1.1-3.2,3.2v19.9c0,9.8-6,18.6-16.1,18.6c-7.8,0-9.3-5.5-9.3-12.3v-26.3     c0-2.1-1.1-3.2-3.1-3.2h-3c-2.1,0-3.2,1.1-3.2,3.2v28.4c0,13.1,5.7,18.9,16.8,18.9c9.7,0,16.2-6.7,18.3-11.6h0.2     c0,0-0.3,1.4-0.3,2.8v4.4c0,2.1,1.1,3.2,3.2,3.2h2.7c2,0,3.2-1.1,3.2-3.2v-42.9C599.3,260.7,598.2,259.7,596.1,259.7z"></path>				<path d="M643.4,258.5c-10.8,0-16.8,7.3-18.7,11.6h-0.2c0,0,0.3-1.4,0.3-2.8v-4.4c0-2.1-1.1-3.2-3.2-3.2h-2.7     c-2,0-3.2,1.1-3.2,3.2v42.9c0,2.1,1.2,3.2,3.2,3.2h3c2.1,0,3.2-1.1,3.2-3.2v-20.4c0-10.2,6.9-18.3,16.5-18.3     c7.9,0,9.3,5.5,9.3,12.4v26.3c0,2.1,1.2,3.2,3.2,3.2h3c2.1,0,3.2-1.1,3.2-3.2v-28.4C660.2,264.8,655,258.5,643.4,258.5z"></path>				<path d="M696.5,301c-3.6-0.3-9.4-1.8-9.4-11.1v-22h8.7c2,0,3.1-1.2,3.1-3.2v-1.3c0-2.1-1.1-3.2-3.2-3.2h-8.6v-10.8     c0-2.1-1.1-3.2-3.2-3.2H681c-2,0-3.2,1.1-3.2,3.2v10.8h-3.5c-2.1,0-3.2,1.2-3.2,3.2v1.3c0,2.1,1.1,3.2,3.1,3.2h3.4v23.4     c0,12.5,8.6,18.2,18.4,18.2c2.6,0,3.9-1,3.9-3.2v-2C699.9,301.9,699,301.2,696.5,301z"></path>			</g>		</g>		<g class="st19">			<path d="M439.6,336c0-1,0.5-1.5,1.5-1.5h1.6c1,0,1.5,0.5,1.5,1.5v15c0,3.5,2.3,5.5,5.7,5.5s5.8-2,5.8-5.5v-15    c0-1,0.5-1.5,1.5-1.5h1.7c1,0,1.5,0.5,1.5,1.5v15.1c0,5.8-4.2,9.8-10.4,9.8c-6.3,0-10.4-3.9-10.4-9.8V336z"></path>			<path d="M468.7,363.5c0.9,0.3,2,0.7,3.8,0.7c2.8,0,5.3-1.2,5.3-4.5v-1.4c0-0.4,0.1-0.9,0.1-0.9h-0.1c-1,1.8-2.6,2.8-5.1,2.8    c-5.4,0-8.4-4.3-8.4-9.5c0-5.1,2.8-9.2,8.4-9.2c4.3,0,5.5,2.8,5.5,2.8h0.1c0,0,0-0.2,0-0.5V343c0-0.7,0.5-1.2,1.5-1.2h1.2    c1,0,1.5,0.5,1.5,1.5v16c0,6.4-5,8.8-9.6,8.8c-2.1,0-4.2-0.4-5.4-1c-0.9-0.4-1.2-1-0.8-2l0.3-0.8    C467.1,363.4,467.7,363.1,468.7,363.5z M477.8,350.7c0-4.3-2.1-5.4-4.5-5.4c-2.9,0-4.5,2-4.5,5.1c0,3.4,1.7,5.7,4.7,5.7    C475.7,356.1,477.8,354.9,477.8,350.7z"></path>			<path d="M496.4,348.9h0.8v-0.4c0-2.4-1.6-3.3-3.5-3.3c-1.6,0-3,0.6-3.9,1.1c-0.9,0.4-1.6,0.3-2-0.6l-0.4-0.7    c-0.4-0.8-0.3-1.6,0.6-2c1.2-0.6,3.3-1.5,6.1-1.5c4.8,0,7.7,2.7,7.7,7.4v10.1c0,1-0.5,1.5-1.5,1.5H499c-1,0-1.5-0.5-1.5-1.5v-0.7    c0-0.5,0.1-0.8,0.1-0.8h-0.1c0,0-1.8,3.5-5.8,3.5c-3.4,0-6.2-2.2-6.2-5.6C485.5,349.8,492.2,348.9,496.4,348.9z M492.9,357.3    c2.6,0,4.3-2.6,4.3-4.9v-0.7h-0.8c-2.3,0-6.3,0.4-6.3,3.1C490.1,356.1,491.1,357.3,492.9,357.3z"></path>			<path d="M506.1,343.3c0-1,0.5-1.5,1.5-1.5h1.4c1,0,1.5,0.5,1.5,1.5v1.1c0,0.4-0.1,0.8-0.1,0.8h0.1c0.8-1.6,2.8-3.9,6.6-3.9    c4.1,0,6.5,2.2,6.5,7.1v10.4c0,1-0.5,1.5-1.5,1.5h-1.6c-1,0-1.5-0.5-1.5-1.5v-9.5c0-2.3-0.6-3.8-2.9-3.8c-3.3,0-5.4,2.7-5.4,6.1    v7.2c0,1-0.5,1.5-1.5,1.5h-1.6c-1,0-1.5-0.5-1.5-1.5V343.3z"></path>			<path d="M535.3,341.4c4.1,0,5.4,2.7,5.4,2.7h0.1c0,0-0.1-0.5-0.1-1.1V336c0-1,0.5-1.5,1.5-1.5h1.6c1,0,1.5,0.5,1.5,1.5v22.9    c0,1-0.5,1.5-1.5,1.5h-1.4c-1,0-1.5-0.5-1.5-1.4v-0.7c0-0.4,0.1-0.7,0.1-0.7H541c0,0-1.6,3.2-5.8,3.2c-5,0-8.3-4-8.3-9.8    C526.9,345.2,530.4,341.4,535.3,341.4z M536.2,357c2.4,0,4.7-1.8,4.7-5.9c0-2.9-1.5-5.7-4.6-5.7c-2.5,0-4.7,2.1-4.7,5.8    C531.6,354.6,533.5,357,536.2,357z"></path>			<path d="M559.5,348.9h0.8v-0.4c0-2.4-1.6-3.3-3.5-3.3c-1.6,0-3,0.6-3.9,1.1c-0.9,0.4-1.6,0.3-2-0.6l-0.4-0.7    c-0.4-0.8-0.3-1.6,0.6-2c1.2-0.6,3.3-1.5,6.1-1.5c4.8,0,7.7,2.7,7.7,7.4v10.1c0,1-0.5,1.5-1.5,1.5h-1.2c-1,0-1.5-0.5-1.5-1.5    v-0.7c0-0.5,0.1-0.8,0.1-0.8h-0.1c0,0-1.8,3.5-5.8,3.5c-3.4,0-6.2-2.2-6.2-5.6C548.6,349.8,555.3,348.9,559.5,348.9z M556,357.3    c2.6,0,4.3-2.6,4.3-4.9v-0.7h-0.8c-2.3,0-6.3,0.4-6.3,3.1C553.2,356.1,554.1,357.3,556,357.3z"></path>		</g>	</g></g></svg>